# xmcd
#
# Track frame offsets: 
#        150
#        13343
#        26416
#        39581
#        52108
#        66031
#        78663
#        88377
#        101356
#        114570
#        130651
#        136926
#        151973
#        161401
#        175241
#        186671
#        197342
#        209998
#        224721
#        234283
#
# Disc length: 3260 seconds
#
# Revision: 2
# Processed by: cddbd v1.5.2PL0 Copyright (c) Steve Scherf et al.
# Submitted via: ExactAudioCopy v1.0b2
#
DISCID=240cba14
DTITLE=Various Artist - Country Classics Disc 3
DYEAR=1999
DGENRE=Country
TTITLE0=Crystal Gayle - Talking In Your Sleep
TTITLE1=Slim Whitman - Red Sails In The Sunset
TTITLE2=Faron Young - Almost Persuaded
TTITLE3=Bobby Bare - 500 Mile From Home
TTITLE4=Eddy Arnold - The Cattle Call
TTITLE5=Hank Williams - Lovesick Blue (broadcast)
TTITLE6=The Louvin Brothers - I Don't Believe You've Met My Baby (broa
TTITLE6=dcast)
TTITLE7=Roy Rogers - Tumbling Tumbleweeds
TTITLE8=Johnny Cash - I Walk The Line (live)
TTITLE9=Willie Nelson - You Were Always On My Mind (live)
TTITLE10=Merle Haggard - The Fightin' Side Of Me (live)
TTITLE11=Jimmie Rodgers - In The Jailhouse Now
TTITLE12=George Jones - The Race Is On
TTITLE13=Don Williams - You're My Best Friend (live)
TTITLE14=Charley Pride - The Happiness Of Having You (live)
TTITLE15=Jim Reeves - I Missed Me (broadcast)
TTITLE16=Kenny Rogers - Reuben James
TTITLE17=Don Gibson - I Can't Stop Loving You
TTITLE18=Dave Dudley - Six Days On The Road
TTITLE19=Patsy Cline - Pick Me Up On Your Way Down
EXTD=
EXTT0=
EXTT1=
EXTT2=
EXTT3=
EXTT4=
EXTT5=
EXTT6=
EXTT7=
EXTT8=
EXTT9=
EXTT10=
EXTT11=
EXTT12=
EXTT13=
EXTT14=
EXTT15=
EXTT16=
EXTT17=
EXTT18=
EXTT19=
PLAYORDER=
